<mxfile host="Electron" agent="Mozilla/5.0 (Windows NT 10.0; Win64; x64) AppleWebKit/537.36 (KHTML, like Gecko) draw.io/24.7.8 Chrome/128.0.6613.36 Electron/32.0.1 Safari/537.36" version="24.7.8">
  <diagram name="Page-1" id="kfZL_mdNE9i9S8XZZEIg">
    <mxGraphModel dx="1948" dy="988" grid="1" gridSize="10" guides="1" tooltips="1" connect="1" arrows="1" fold="1" page="1" pageScale="1" pageWidth="850" pageHeight="1100" math="0" shadow="0">
      <root>
        <mxCell id="0" />
        <mxCell id="1" parent="0" />
        <mxCell id="MrOZUvE0HiuTOVh0oNqs-1" value="&amp;nbsp; &amp;nbsp; &amp;nbsp; &amp;nbsp; &amp;nbsp; &amp;nbsp; &amp;nbsp; &amp;nbsp; &amp;nbsp; &amp;nbsp; &amp;nbsp; &amp;nbsp; &amp;nbsp; &amp;nbsp; &amp;nbsp; &amp;nbsp; &amp;nbsp; &amp;nbsp; &amp;nbsp; &amp;nbsp; &amp;nbsp; &amp;nbsp; &amp;nbsp; &amp;nbsp; &amp;nbsp; &amp;nbsp; &amp;nbsp; &amp;nbsp; &amp;nbsp; &amp;nbsp; &amp;nbsp; &amp;nbsp; &amp;nbsp; &amp;nbsp; &amp;nbsp; &amp;nbsp; &amp;nbsp; &amp;nbsp; &amp;nbsp; &amp;nbsp; &amp;nbsp; &amp;nbsp; &amp;nbsp; &amp;nbsp; &amp;nbsp; &amp;nbsp; &amp;nbsp; &lt;b&gt;&lt;font style=&quot;font-size: 17px;&quot;&gt;k-1&lt;/font&gt;&lt;/b&gt;" style="shape=parallelogram;perimeter=parallelogramPerimeter;whiteSpace=wrap;html=1;fixedSize=1;size=180;" vertex="1" parent="1">
          <mxGeometry x="40" y="210" width="590" height="210" as="geometry" />
        </mxCell>
        <mxCell id="MrOZUvE0HiuTOVh0oNqs-36" value="" style="ellipse;whiteSpace=wrap;html=1;" vertex="1" parent="1">
          <mxGeometry x="330" y="230" width="50" height="30" as="geometry" />
        </mxCell>
        <mxCell id="MrOZUvE0HiuTOVh0oNqs-37" value="" style="ellipse;whiteSpace=wrap;html=1;" vertex="1" parent="1">
          <mxGeometry x="270" y="270" width="50" height="30" as="geometry" />
        </mxCell>
        <mxCell id="MrOZUvE0HiuTOVh0oNqs-38" value="" style="endArrow=classic;html=1;rounded=0;exitX=0;exitY=1;exitDx=0;exitDy=0;" edge="1" parent="1" source="MrOZUvE0HiuTOVh0oNqs-36" target="MrOZUvE0HiuTOVh0oNqs-37">
          <mxGeometry width="50" height="50" relative="1" as="geometry">
            <mxPoint x="325.4000000000001" y="259.70000000000005" as="sourcePoint" />
            <mxPoint x="390" y="190" as="targetPoint" />
          </mxGeometry>
        </mxCell>
        <mxCell id="MrOZUvE0HiuTOVh0oNqs-39" value="" style="ellipse;whiteSpace=wrap;html=1;" vertex="1" parent="1">
          <mxGeometry x="240" y="315" width="50" height="30" as="geometry" />
        </mxCell>
        <mxCell id="MrOZUvE0HiuTOVh0oNqs-40" value="" style="ellipse;whiteSpace=wrap;html=1;" vertex="1" parent="1">
          <mxGeometry x="200" y="360" width="50" height="30" as="geometry" />
        </mxCell>
        <mxCell id="MrOZUvE0HiuTOVh0oNqs-41" value="" style="endArrow=classic;html=1;rounded=0;exitX=0.308;exitY=0.99;exitDx=0;exitDy=0;exitPerimeter=0;" edge="1" parent="1" source="MrOZUvE0HiuTOVh0oNqs-39" target="MrOZUvE0HiuTOVh0oNqs-40">
          <mxGeometry width="50" height="50" relative="1" as="geometry">
            <mxPoint x="420" y="300" as="sourcePoint" />
            <mxPoint x="470" y="250" as="targetPoint" />
          </mxGeometry>
        </mxCell>
        <mxCell id="MrOZUvE0HiuTOVh0oNqs-44" value="" style="endArrow=classic;html=1;rounded=0;entryX=0.66;entryY=0.12;entryDx=0;entryDy=0;entryPerimeter=0;" edge="1" parent="1" target="MrOZUvE0HiuTOVh0oNqs-39">
          <mxGeometry width="50" height="50" relative="1" as="geometry">
            <mxPoint x="290" y="300" as="sourcePoint" />
            <mxPoint x="340" y="250" as="targetPoint" />
          </mxGeometry>
        </mxCell>
        <mxCell id="MrOZUvE0HiuTOVh0oNqs-45" value="" style="ellipse;whiteSpace=wrap;html=1;" vertex="1" parent="1">
          <mxGeometry x="348.5" y="280" width="50" height="30" as="geometry" />
        </mxCell>
        <mxCell id="MrOZUvE0HiuTOVh0oNqs-46" value="" style="ellipse;whiteSpace=wrap;html=1;" vertex="1" parent="1">
          <mxGeometry x="378.5" y="330" width="50" height="30" as="geometry" />
        </mxCell>
        <mxCell id="MrOZUvE0HiuTOVh0oNqs-47" value="" style="endArrow=classic;html=1;rounded=0;exitX=0.748;exitY=0.913;exitDx=0;exitDy=0;exitPerimeter=0;" edge="1" parent="1" source="MrOZUvE0HiuTOVh0oNqs-45" target="MrOZUvE0HiuTOVh0oNqs-46">
          <mxGeometry width="50" height="50" relative="1" as="geometry">
            <mxPoint x="558.5" y="255" as="sourcePoint" />
            <mxPoint x="608.5" y="205" as="targetPoint" />
          </mxGeometry>
        </mxCell>
        <mxCell id="MrOZUvE0HiuTOVh0oNqs-48" value="" style="endArrow=classic;html=1;rounded=0;exitX=0.615;exitY=0.984;exitDx=0;exitDy=0;entryX=0.37;entryY=0;entryDx=0;entryDy=0;entryPerimeter=0;exitPerimeter=0;" edge="1" parent="1" source="MrOZUvE0HiuTOVh0oNqs-36" target="MrOZUvE0HiuTOVh0oNqs-45">
          <mxGeometry width="50" height="50" relative="1" as="geometry">
            <mxPoint x="352.6776695296637" y="255.60660171779818" as="sourcePoint" />
            <mxPoint x="367" y="270" as="targetPoint" />
          </mxGeometry>
        </mxCell>
        <mxCell id="MrOZUvE0HiuTOVh0oNqs-49" value="" style="ellipse;whiteSpace=wrap;html=1;" vertex="1" parent="1">
          <mxGeometry x="280" y="360" width="50" height="30" as="geometry" />
        </mxCell>
        <mxCell id="MrOZUvE0HiuTOVh0oNqs-50" value="" style="endArrow=classic;html=1;rounded=0;exitX=1;exitY=1;exitDx=0;exitDy=0;" edge="1" parent="1" source="MrOZUvE0HiuTOVh0oNqs-39" target="MrOZUvE0HiuTOVh0oNqs-49">
          <mxGeometry width="50" height="50" relative="1" as="geometry">
            <mxPoint x="300" y="310" as="sourcePoint" />
            <mxPoint x="283" y="329" as="targetPoint" />
          </mxGeometry>
        </mxCell>
        <mxCell id="MrOZUvE0HiuTOVh0oNqs-64" value="&amp;nbsp; &amp;nbsp; &amp;nbsp; &amp;nbsp; &amp;nbsp; &amp;nbsp; &amp;nbsp; &amp;nbsp; &amp;nbsp; &amp;nbsp; &amp;nbsp; &amp;nbsp; &amp;nbsp; &amp;nbsp; &amp;nbsp; &amp;nbsp; &amp;nbsp; &amp;nbsp; &amp;nbsp; &amp;nbsp; &amp;nbsp; &amp;nbsp; &amp;nbsp; &amp;nbsp; &amp;nbsp; &amp;nbsp; &amp;nbsp; &amp;nbsp; &amp;nbsp; &amp;nbsp; &amp;nbsp; &amp;nbsp; &amp;nbsp; &amp;nbsp; &amp;nbsp; &amp;nbsp; &amp;nbsp; &amp;nbsp; &amp;nbsp; &amp;nbsp; &amp;nbsp; &amp;nbsp; &amp;nbsp; &amp;nbsp; &amp;nbsp; &amp;nbsp; &amp;nbsp;&lt;font style=&quot;font-size: 17px;&quot;&gt;&lt;b&gt;K&lt;/b&gt;&lt;/font&gt;" style="shape=parallelogram;perimeter=parallelogramPerimeter;whiteSpace=wrap;html=1;fixedSize=1;size=180;" vertex="1" parent="1">
          <mxGeometry x="-90" y="460" width="590" height="210" as="geometry" />
        </mxCell>
        <mxCell id="MrOZUvE0HiuTOVh0oNqs-65" value="" style="ellipse;whiteSpace=wrap;html=1;" vertex="1" parent="1">
          <mxGeometry x="200" y="480" width="50" height="30" as="geometry" />
        </mxCell>
        <mxCell id="MrOZUvE0HiuTOVh0oNqs-66" value="" style="ellipse;whiteSpace=wrap;html=1;fillColor=#f8cecc;strokeColor=#b85450;" vertex="1" parent="1">
          <mxGeometry x="140" y="520" width="50" height="30" as="geometry" />
        </mxCell>
        <mxCell id="MrOZUvE0HiuTOVh0oNqs-67" value="" style="endArrow=classic;html=1;rounded=0;exitX=0;exitY=1;exitDx=0;exitDy=0;" edge="1" parent="1" source="MrOZUvE0HiuTOVh0oNqs-65" target="MrOZUvE0HiuTOVh0oNqs-66">
          <mxGeometry width="50" height="50" relative="1" as="geometry">
            <mxPoint x="195.4000000000001" y="509.70000000000005" as="sourcePoint" />
            <mxPoint x="260" y="440" as="targetPoint" />
          </mxGeometry>
        </mxCell>
        <mxCell id="MrOZUvE0HiuTOVh0oNqs-68" value="" style="ellipse;whiteSpace=wrap;html=1;" vertex="1" parent="1">
          <mxGeometry x="110" y="565" width="50" height="30" as="geometry" />
        </mxCell>
        <mxCell id="MrOZUvE0HiuTOVh0oNqs-69" value="" style="ellipse;whiteSpace=wrap;html=1;" vertex="1" parent="1">
          <mxGeometry x="70" y="610" width="50" height="30" as="geometry" />
        </mxCell>
        <mxCell id="MrOZUvE0HiuTOVh0oNqs-70" value="" style="endArrow=classic;html=1;rounded=0;exitX=0.308;exitY=0.99;exitDx=0;exitDy=0;exitPerimeter=0;" edge="1" parent="1" source="MrOZUvE0HiuTOVh0oNqs-68" target="MrOZUvE0HiuTOVh0oNqs-69">
          <mxGeometry width="50" height="50" relative="1" as="geometry">
            <mxPoint x="290" y="550" as="sourcePoint" />
            <mxPoint x="340" y="500" as="targetPoint" />
          </mxGeometry>
        </mxCell>
        <mxCell id="MrOZUvE0HiuTOVh0oNqs-71" value="" style="endArrow=classic;html=1;rounded=0;entryX=0.66;entryY=0.12;entryDx=0;entryDy=0;entryPerimeter=0;" edge="1" parent="1" target="MrOZUvE0HiuTOVh0oNqs-68">
          <mxGeometry width="50" height="50" relative="1" as="geometry">
            <mxPoint x="160" y="550" as="sourcePoint" />
            <mxPoint x="210" y="500" as="targetPoint" />
          </mxGeometry>
        </mxCell>
        <mxCell id="MrOZUvE0HiuTOVh0oNqs-72" value="" style="ellipse;whiteSpace=wrap;html=1;" vertex="1" parent="1">
          <mxGeometry x="218.5" y="530" width="50" height="30" as="geometry" />
        </mxCell>
        <mxCell id="MrOZUvE0HiuTOVh0oNqs-73" value="" style="ellipse;whiteSpace=wrap;html=1;" vertex="1" parent="1">
          <mxGeometry x="248.5" y="580" width="50" height="30" as="geometry" />
        </mxCell>
        <mxCell id="MrOZUvE0HiuTOVh0oNqs-74" value="" style="endArrow=classic;html=1;rounded=0;exitX=0.748;exitY=0.913;exitDx=0;exitDy=0;exitPerimeter=0;" edge="1" parent="1" source="MrOZUvE0HiuTOVh0oNqs-72" target="MrOZUvE0HiuTOVh0oNqs-73">
          <mxGeometry width="50" height="50" relative="1" as="geometry">
            <mxPoint x="428.5" y="505" as="sourcePoint" />
            <mxPoint x="478.5" y="455" as="targetPoint" />
          </mxGeometry>
        </mxCell>
        <mxCell id="MrOZUvE0HiuTOVh0oNqs-75" value="" style="endArrow=classic;html=1;rounded=0;exitX=0.615;exitY=0.984;exitDx=0;exitDy=0;entryX=0.37;entryY=0;entryDx=0;entryDy=0;entryPerimeter=0;exitPerimeter=0;" edge="1" parent="1" source="MrOZUvE0HiuTOVh0oNqs-65" target="MrOZUvE0HiuTOVh0oNqs-72">
          <mxGeometry width="50" height="50" relative="1" as="geometry">
            <mxPoint x="222.67766952966372" y="505.6066017177982" as="sourcePoint" />
            <mxPoint x="237" y="520" as="targetPoint" />
          </mxGeometry>
        </mxCell>
        <mxCell id="MrOZUvE0HiuTOVh0oNqs-76" value="" style="ellipse;whiteSpace=wrap;html=1;" vertex="1" parent="1">
          <mxGeometry x="150" y="610" width="50" height="30" as="geometry" />
        </mxCell>
        <mxCell id="MrOZUvE0HiuTOVh0oNqs-77" value="" style="endArrow=classic;html=1;rounded=0;exitX=1;exitY=1;exitDx=0;exitDy=0;" edge="1" parent="1" source="MrOZUvE0HiuTOVh0oNqs-68" target="MrOZUvE0HiuTOVh0oNqs-76">
          <mxGeometry width="50" height="50" relative="1" as="geometry">
            <mxPoint x="170" y="560" as="sourcePoint" />
            <mxPoint x="153" y="579" as="targetPoint" />
          </mxGeometry>
        </mxCell>
        <mxCell id="MrOZUvE0HiuTOVh0oNqs-78" value="" style="shape=flexArrow;endArrow=classic;startArrow=classic;html=1;rounded=0;entryX=0.231;entryY=0.99;entryDx=0;entryDy=0;entryPerimeter=0;" edge="1" parent="1" target="MrOZUvE0HiuTOVh0oNqs-1">
          <mxGeometry width="100" height="100" relative="1" as="geometry">
            <mxPoint x="160" y="530" as="sourcePoint" />
            <mxPoint x="260" y="430" as="targetPoint" />
          </mxGeometry>
        </mxCell>
      </root>
    </mxGraphModel>
  </diagram>
</mxfile>
